<mxfile host="app.diagrams.net" agent="Mozilla/5.0 (Windows NT 10.0; Win64; x64) AppleWebKit/537.36 (KHTML, like Gecko) Chrome/136.0.0.0 Safari/537.36" version="27.0.6">
  <diagram name="Frontend Pages" id="frontend-tree">
    <mxGraphModel dx="2050" dy="1232" grid="1" gridSize="10" guides="1" tooltips="1" connect="1" arrows="1" fold="1" page="1" pageScale="1" pageWidth="850" pageHeight="1100" math="0" shadow="0">
      <root>
        <mxCell id="0" />
        <mxCell id="1" parent="0" />
        <mxCell id="a5riUjKo6Tgy9D96M4Gv-39" style="edgeStyle=orthogonalEdgeStyle;rounded=0;orthogonalLoop=1;jettySize=auto;html=1;entryX=0.5;entryY=0;entryDx=0;entryDy=0;" edge="1" parent="1" source="2" target="a5riUjKo6Tgy9D96M4Gv-34">
          <mxGeometry relative="1" as="geometry" />
        </mxCell>
        <mxCell id="2" value="Главная страница" style="rounded=1;whiteSpace=wrap;html=1;fillColor=#dae8fc;fontSize=15;" parent="1" vertex="1">
          <mxGeometry x="710" y="30" width="220" height="40" as="geometry" />
        </mxCell>
        <mxCell id="5" value="Партнеры" style="rounded=1;whiteSpace=wrap;html=1;fillColor=#fff2cc;fontSize=15;" parent="1" vertex="1">
          <mxGeometry x="230" y="110" width="170" height="50" as="geometry" />
        </mxCell>
        <mxCell id="6" style="edgeStyle=orthogonalEdgeStyle;rounded=0;orthogonalLoop=1;jettySize=auto;html=1;endArrow=block;endFill=1;fontSize=15;" parent="1" source="2" target="5" edge="1">
          <mxGeometry relative="1" as="geometry" />
        </mxCell>
        <mxCell id="9" value="Проекты" style="rounded=1;whiteSpace=wrap;html=1;fillColor=#fff2cc;fontSize=15;" parent="1" vertex="1">
          <mxGeometry x="1240" y="110" width="170" height="50" as="geometry" />
        </mxCell>
        <mxCell id="10" style="edgeStyle=orthogonalEdgeStyle;rounded=0;orthogonalLoop=1;jettySize=auto;html=1;endArrow=block;endFill=1;fontSize=15;" parent="1" source="2" target="9" edge="1">
          <mxGeometry relative="1" as="geometry" />
        </mxCell>
        <mxCell id="13" value="Страница проекта" style="rounded=1;whiteSpace=wrap;html=1;fillColor=#d5e8d4;fontSize=15;" parent="1" vertex="1">
          <mxGeometry x="1240" y="190" width="170" height="50" as="geometry" />
        </mxCell>
        <mxCell id="14" style="edgeStyle=orthogonalEdgeStyle;rounded=0;orthogonalLoop=1;jettySize=auto;html=1;endArrow=block;endFill=1;fontSize=15;" parent="1" source="9" target="13" edge="1">
          <mxGeometry relative="1" as="geometry" />
        </mxCell>
        <mxCell id="15" value="Исследователи" style="rounded=1;whiteSpace=wrap;html=1;fillColor=#fff2cc;fontSize=15;" parent="1" vertex="1">
          <mxGeometry x="630" y="110" width="170" height="50" as="geometry" />
        </mxCell>
        <mxCell id="16" style="edgeStyle=orthogonalEdgeStyle;rounded=0;orthogonalLoop=1;jettySize=auto;html=1;endArrow=block;endFill=1;fontSize=15;" parent="1" source="2" target="15" edge="1">
          <mxGeometry relative="1" as="geometry" />
        </mxCell>
        <mxCell id="19" value="Страница исследователя" style="rounded=1;whiteSpace=wrap;html=1;fillColor=#d5e8d4;fontSize=15;" parent="1" vertex="1">
          <mxGeometry x="630" y="190" width="170" height="50" as="geometry" />
        </mxCell>
        <mxCell id="20" style="edgeStyle=orthogonalEdgeStyle;rounded=0;orthogonalLoop=1;jettySize=auto;html=1;endArrow=block;endFill=1;fontSize=15;" parent="1" source="15" target="19" edge="1">
          <mxGeometry relative="1" as="geometry" />
        </mxCell>
        <mxCell id="22" style="edgeStyle=orthogonalEdgeStyle;rounded=0;orthogonalLoop=1;jettySize=auto;html=1;endArrow=block;endFill=1;fontSize=15;" parent="1" source="2" edge="1">
          <mxGeometry relative="1" as="geometry">
            <mxPoint x="915" y="110" as="targetPoint" />
          </mxGeometry>
        </mxCell>
        <mxCell id="25" value="Песочница" style="rounded=1;whiteSpace=wrap;html=1;fillColor=#fff2cc;fontSize=15;" parent="1" vertex="1">
          <mxGeometry x="1030" y="110" width="170" height="50" as="geometry" />
        </mxCell>
        <mxCell id="26" style="edgeStyle=orthogonalEdgeStyle;rounded=0;orthogonalLoop=1;jettySize=auto;html=1;endArrow=block;endFill=1;fontSize=15;" parent="1" source="2" target="25" edge="1">
          <mxGeometry relative="1" as="geometry" />
        </mxCell>
        <mxCell id="29" value="Симуляция нейрона" style="rounded=1;whiteSpace=wrap;html=1;fillColor=#d5e8d4;fontSize=15;" parent="1" vertex="1">
          <mxGeometry x="1030" y="190" width="170" height="50" as="geometry" />
        </mxCell>
        <mxCell id="30" style="edgeStyle=orthogonalEdgeStyle;rounded=0;orthogonalLoop=1;jettySize=auto;html=1;endArrow=block;endFill=1;fontSize=15;" parent="1" source="25" target="29" edge="1">
          <mxGeometry relative="1" as="geometry" />
        </mxCell>
        <mxCell id="31" value="Изображение в мазки" style="rounded=1;whiteSpace=wrap;html=1;fillColor=#d5e8d4;fontSize=15;" parent="1" vertex="1">
          <mxGeometry x="1070" y="270" width="170" height="50" as="geometry" />
        </mxCell>
        <mxCell id="32" style="edgeStyle=orthogonalEdgeStyle;rounded=0;orthogonalLoop=1;jettySize=auto;html=1;endArrow=block;endFill=1;entryX=0.881;entryY=0.025;entryDx=0;entryDy=0;entryPerimeter=0;fontSize=15;" parent="1" source="25" target="31" edge="1">
          <mxGeometry relative="1" as="geometry">
            <Array as="points">
              <mxPoint x="1220" y="140" />
              <mxPoint x="1220" y="220" />
            </Array>
          </mxGeometry>
        </mxCell>
        <mxCell id="a5riUjKo6Tgy9D96M4Gv-40" value="" style="edgeStyle=orthogonalEdgeStyle;rounded=0;orthogonalLoop=1;jettySize=auto;html=1;" edge="1" parent="1" source="33" target="15">
          <mxGeometry relative="1" as="geometry" />
        </mxCell>
        <mxCell id="33" value="Публикации" style="rounded=1;whiteSpace=wrap;html=1;fillColor=#fff2cc;fontSize=15;" parent="1" vertex="1">
          <mxGeometry x="830" y="110" width="170" height="50" as="geometry" />
        </mxCell>
        <mxCell id="34" style="edgeStyle=orthogonalEdgeStyle;rounded=0;orthogonalLoop=1;jettySize=auto;html=1;endArrow=block;endFill=1;fontSize=15;" parent="1" source="2" target="33" edge="1">
          <mxGeometry relative="1" as="geometry" />
        </mxCell>
        <mxCell id="a5riUjKo6Tgy9D96M4Gv-42" style="edgeStyle=orthogonalEdgeStyle;rounded=0;orthogonalLoop=1;jettySize=auto;html=1;" edge="1" parent="1" source="a5riUjKo6Tgy9D96M4Gv-34" target="15">
          <mxGeometry relative="1" as="geometry" />
        </mxCell>
        <mxCell id="a5riUjKo6Tgy9D96M4Gv-34" value="Обучение" style="rounded=1;whiteSpace=wrap;html=1;fillColor=#fff2cc;fontSize=15;" vertex="1" parent="1">
          <mxGeometry x="425" y="110" width="170" height="50" as="geometry" />
        </mxCell>
        <mxCell id="a5riUjKo6Tgy9D96M4Gv-35" value="Дисциплины" style="rounded=1;whiteSpace=wrap;html=1;fillColor=#d5e8d4;fontSize=15;" vertex="1" parent="1">
          <mxGeometry x="425" y="190" width="170" height="50" as="geometry" />
        </mxCell>
        <mxCell id="a5riUjKo6Tgy9D96M4Gv-36" style="edgeStyle=orthogonalEdgeStyle;rounded=0;orthogonalLoop=1;jettySize=auto;html=1;endArrow=block;endFill=1;fontSize=15;" edge="1" parent="1" source="a5riUjKo6Tgy9D96M4Gv-34" target="a5riUjKo6Tgy9D96M4Gv-35">
          <mxGeometry relative="1" as="geometry" />
        </mxCell>
        <mxCell id="a5riUjKo6Tgy9D96M4Gv-37" value="Пособия" style="rounded=1;whiteSpace=wrap;html=1;fillColor=#d5e8d4;fontSize=15;" vertex="1" parent="1">
          <mxGeometry x="465" y="270" width="170" height="50" as="geometry" />
        </mxCell>
        <mxCell id="a5riUjKo6Tgy9D96M4Gv-38" style="edgeStyle=orthogonalEdgeStyle;rounded=0;orthogonalLoop=1;jettySize=auto;html=1;endArrow=block;endFill=1;entryX=0.881;entryY=0.025;entryDx=0;entryDy=0;entryPerimeter=0;fontSize=15;" edge="1" parent="1" source="a5riUjKo6Tgy9D96M4Gv-34" target="a5riUjKo6Tgy9D96M4Gv-37">
          <mxGeometry relative="1" as="geometry">
            <Array as="points">
              <mxPoint x="615" y="160" />
            </Array>
          </mxGeometry>
        </mxCell>
      </root>
    </mxGraphModel>
  </diagram>
</mxfile>
